<svg id="Gruppe_1246" data-name="Gruppe 1246" xmlns="http://www.w3.org/2000/svg" width="512" height="512" viewBox="0 0 512 512">
  <g id="Gruppe_1245" data-name="Gruppe 1245">
    <path id="Pfad_1261" data-name="Pfad 1261" d="M82,0H430a82,82,0,0,1,82,82V430a82,82,0,0,1-82,82H82A82,82,0,0,1,0,430V82A82,82,0,0,1,82,0Z" fill="#f9b000"/>
    <path id="Differenzmenge_3" data-name="Differenzmenge 3" d="M118.288,220.079a173.627,173.627,0,0,1-18.594-.967,140.614,140.614,0,0,1-17.109-2.9,117.85,117.85,0,0,1-15.623-4.833,103.721,103.721,0,0,1-14.138-6.764,115.728,115.728,0,0,1-12.534-8.34,101.92,101.92,0,0,1-10.811-9.559,94.147,94.147,0,0,1-16.458-22.777,118.34,118.34,0,0,1-5.7-12.826A114.819,114.819,0,0,1,3.253,137.84a116.106,116.106,0,0,1-2.44-13.718A122.678,122.678,0,0,1,0,109.962,124.271,124.271,0,0,1,.809,95.74a116.909,116.909,0,0,1,2.426-13.75A114.906,114.906,0,0,1,7.279,68.713a117.74,117.74,0,0,1,5.662-12.8,92.875,92.875,0,0,1,16.424-22.7,101.24,101.24,0,0,1,10.821-9.521,115.375,115.375,0,0,1,12.558-8.3A104.3,104.3,0,0,1,66.915,8.656a118.559,118.559,0,0,1,15.648-4.81A141.436,141.436,0,0,1,99.689.961,174.641,174.641,0,0,1,118.288,0c4.79,0,9.52.185,14.056.551s8.995.921,13.277,1.653,8.472,1.657,12.5,2.755a118.513,118.513,0,0,1,11.715,3.855c3.754,1.46,7.4,3.074,10.821,4.8a108.744,108.744,0,0,1,9.816,5.582,97.093,97.093,0,0,1,8.81,6.366,89.549,89.549,0,0,1,7.805,7.151,100.651,100.651,0,0,1,12.826,16.313A103.527,103.527,0,0,1,229.2,67.815a117.074,117.074,0,0,1,5.646,20.553,123.133,123.133,0,0,1,1.882,21.595,126.99,126.99,0,0,1-.843,14.7,117.151,117.151,0,0,1-2.527,14.1,112.717,112.717,0,0,1-4.208,13.5,113.888,113.888,0,0,1-5.888,12.9,96.625,96.625,0,0,1-7.559,11.96,95.414,95.414,0,0,1-9.206,10.663,100.621,100.621,0,0,1-10.852,9.368,112.608,112.608,0,0,1-12.5,8.074,104.986,104.986,0,0,1-14.039,6.492,119.939,119.939,0,0,1-15.492,4.638,143.468,143.468,0,0,1-16.941,2.784A176.918,176.918,0,0,1,118.288,220.079ZM46.415,129.53a6.9,6.9,0,0,0-3.935,1.232,7.027,7.027,0,0,0-2.946,4.533,7.123,7.123,0,0,0,1.091,5.318A100.907,100.907,0,0,0,60.6,160.955a98.468,98.468,0,0,0,23.65,13.735,86.906,86.906,0,0,0,14.966,4.515,84.779,84.779,0,0,0,16.955,1.711,91.1,91.1,0,0,0,18.438-1.931,109.143,109.143,0,0,0,20.184-6.366,76.621,76.621,0,0,0,16.065-9.143,71.6,71.6,0,0,0,11.97-11.307,79.89,79.89,0,0,0,14.059-25.076,96.151,96.151,0,0,0,3.29-11.755c.7-3.264,1.234-6.592,1.6-9.891a75.7,75.7,0,0,0,.521-10.161,7.081,7.081,0,0,0-7.054-6.849l-.173,0a6.919,6.919,0,0,0-4.881,2.235,7.125,7.125,0,0,0-1.9,5.078,60.094,60.094,0,0,1-.456,8.181,80.011,80.011,0,0,1-1.332,7.949,76.932,76.932,0,0,1-2.714,9.45,64.688,64.688,0,0,1-11.516,20.187,58.818,58.818,0,0,1-9.772,9.131,63.405,63.405,0,0,1-13.1,7.417,97.651,97.651,0,0,1-17.971,5.679,80.151,80.151,0,0,1-16.278,1.715,72.918,72.918,0,0,1-26.308-4.883A81.024,81.024,0,0,1,69.336,149.7,88.389,88.389,0,0,1,57,138.5a59.524,59.524,0,0,1-4.794-5.872A6.981,6.981,0,0,0,46.415,129.53ZM76.673,37.99a7.017,7.017,0,0,0-4.987,2.429,20.824,20.824,0,0,0-4.072,6.624,46.964,46.964,0,0,0-2.745,9.825,72.4,72.4,0,0,0,0,24.062,46.972,46.972,0,0,0,2.745,9.825,20.835,20.835,0,0,0,4.072,6.624,6.333,6.333,0,0,0,9.973,0,20.855,20.855,0,0,0,4.072-6.624,47.048,47.048,0,0,0,2.745-9.825,72.4,72.4,0,0,0,0-24.062,47.015,47.015,0,0,0-2.745-9.825,20.845,20.845,0,0,0-4.072-6.624A7.017,7.017,0,0,0,76.673,37.99Zm65.02,24.849a45.434,45.434,0,0,0-15.463,2.5,19.421,19.421,0,0,0-5.392,2.921,7.772,7.772,0,0,0-2.773,3.851,9.188,9.188,0,0,0,1.032,7.595,11.469,11.469,0,0,0,3.669,3.553,13.639,13.639,0,0,0,4.844,1.831,7.034,7.034,0,0,0,1.155.094,12.039,12.039,0,0,0,4.277-.934c1.491-.568,3.044-1.333,4.688-2.143,3.417-1.684,7.29-3.593,11.51-4.071a17.491,17.491,0,0,1,1.948-.11,17.977,17.977,0,0,1,5.572.914,41.045,41.045,0,0,1,4.7,1.933l.007,0c2.462,1.137,4.787,2.211,7.259,2.211a6.512,6.512,0,0,0,3.825-1.19,6.055,6.055,0,0,0,2.2-2.91,5.75,5.75,0,0,0,.125-3.488,6.538,6.538,0,0,0-2.245-3.288,31.482,31.482,0,0,0-8.484-5.118,65.423,65.423,0,0,0-15.061-3.635A51.635,51.635,0,0,0,141.693,62.838Z" transform="translate(260.406 146.281)" fill="#fff"/>
    <g id="Gruppe_1231" data-name="Gruppe 1231" transform="translate(14.473 145.702)">
      <path id="Pfad_1260" data-name="Pfad 1260" d="M188.546,89.174h-82.86v42.955h28.171v25.1a108.935,108.935,0,0,1-25.47,3.242q-20.985,0-35.811-8.245T50.4,130.358a61.85,61.85,0,0,1-7.338-29.79,70.632,70.632,0,0,1,6.37-28.33Q55.8,57.6,72.052,47.058t43.381-10.545q23.51,0,39.248,5.7A170.472,170.472,0,0,1,184.5,56.38V5.874Q163.217-1.056,145.4-5.293q-17.84-4.226-45.255-4.236A212.05,212.05,0,0,0,69.733-7.52,120.174,120.174,0,0,0,41.492.4,117.112,117.112,0,0,0,12.948,17.578q-17.084,13.548-25.4,36.109a131.9,131.9,0,0,0-8.315,45.959q0,36.342,16.106,61.279a96.589,96.589,0,0,0,42.927,36.8q26.82,11.855,58.439,11.86a240.851,240.851,0,0,0,29.885-1.771,263.872,263.872,0,0,0,28.393-5.158q8.391-2.16,12.81-3.542t9.212-3.076q4.793-1.694,11.541-4.319Z" transform="translate(20.767 9.529)" fill="#fff"/>
    </g>
  </g>
</svg>
